<?xml version="1.0" standalone="no"?>
<!DOCTYPE svg PUBLIC "-//W3C//DTD SVG 20010904//EN"
 "http://www.w3.org/TR/2001/REC-SVG-20010904/DTD/svg10.dtd">
<svg version="1.0" xmlns="http://www.w3.org/2000/svg"
 width="505.000000pt" height="505.000000pt" viewBox="0 0 505.000000 505.000000"
 preserveAspectRatio="xMidYMid meet">
<metadata>
Created by potrace 1.11, written by Peter Selinger 2001-2013
</metadata>
<g transform="translate(0.000000,505.000000) scale(0.100000,-0.100000)"
fill="#000000" stroke="none">
<path d="M0 2525 l0 -2525 2525 0 2525 0 0 2525 0 2525 -2525 0 -2525 0 0
-2525z m4890 -5 l0 -2390 -2385 0 -2385 0 0 2390 0 2390 2385 0 2385 0 0
-2390z"/>
<path d="M3400 4252 c-90 -95 -178 -242 -333 -555 l-132 -267 -30 5 c-16 2
-73 14 -125 25 -120 27 -360 37 -482 21 -48 -6 -122 -21 -165 -32 -43 -12 -87
-23 -99 -26 -18 -4 -23 4 -39 64 -44 164 -122 314 -232 445 -63 75 -182 171
-260 210 -60 29 -64 30 -114 18 -80 -19 -100 -46 -153 -200 -41 -119 -142
-515 -221 -860 -14 -63 -30 -131 -35 -150 l-9 -35 -125 3 c-127 4 -378 -19
-436 -39 -69 -25 -68 -117 2 -142 9 -3 58 1 110 10 52 8 166 15 258 16 l165 2
-4 -60 c-2 -33 -6 -78 -10 -100 l-7 -40 -94 -7 c-111 -8 -242 -29 -390 -64
-273 -64 -346 -109 -294 -182 29 -42 55 -44 156 -12 195 61 442 109 562 110
l48 0 -6 -32 c-39 -216 -71 -640 -62 -833 19 -412 120 -684 325 -877 155 -147
352 -218 601 -218 252 0 490 81 628 213 214 206 239 438 65 597 -137 126 -338
174 -463 110 -100 -51 -196 -183 -208 -286 -11 -100 52 -202 149 -244 66 -28
52 -40 -51 -40 -101 0 -237 23 -288 49 -124 63 -253 249 -342 492 -46 127 -60
244 -63 529 -2 240 0 264 26 409 15 84 34 179 42 210 22 86 43 199 50 271 8
80 200 877 214 893 8 8 179 -272 209 -343 10 -25 22 -62 26 -83 4 -23 21 -52
44 -76 30 -32 46 -40 89 -46 49 -6 59 -4 134 35 204 105 427 141 644 106 152
-25 197 -41 220 -79 38 -61 153 -96 202 -62 12 8 59 88 106 177 127 246 296
521 321 522 32 3 323 -869 301 -903 -7 -12 21 -132 33 -140 16 -11 65 -296 93
-546 17 -145 17 -580 0 -720 -29 -251 -73 -446 -114 -512 -38 -59 -122 -132
-190 -163 -81 -38 -187 -51 -303 -38 -73 9 -92 8 -120 -6 -42 -19 -74 -70 -74
-114 0 -58 38 -84 176 -120 210 -56 399 -41 569 43 218 108 342 314 402 670
15 91 18 163 17 420 0 275 -3 334 -28 525 -15 118 -28 224 -29 235 -2 18 7 21
78 29 99 11 251 -5 330 -35 70 -26 100 -27 125 -4 56 51 -8 145 -123 183 -93
31 -225 45 -343 37 l-102 -7 -11 64 c-6 36 -11 70 -11 76 0 17 131 15 205 -3
81 -19 101 -19 125 5 33 33 25 70 -23 117 -50 49 -114 69 -263 79 l-91 7 -18
76 c-88 379 -250 813 -391 1048 -85 141 -110 173 -145 180 -16 3 -34 12 -40
19 -6 8 -30 14 -53 14 -37 0 -46 -6 -106 -68z"/>
</g>
</svg>
